<?xml version="1.0" encoding="UTF-8"?>
<!DOCTYPE svg PUBLIC "-//W3C//DTD SVG 1.1//EN" "http://www.w3.org/Graphics/SVG/1.1/DTD/svg11.dtd">
<!-- Creator: CorelDRAW 2020 (64-Bit) -->
<svg xmlns="http://www.w3.org/2000/svg" xml:space="preserve" width="254px" height="28px" version="1.1" style="shape-rendering:geometricPrecision; text-rendering:geometricPrecision; image-rendering:optimizeQuality; fill-rule:evenodd; clip-rule:evenodd"
viewBox="0 0 407.03 44.89"
 xmlns:xlink="http://www.w3.org/1999/xlink"
 xmlns:xodm="http://www.corel.com/coreldraw/odm/2003">
 <defs>
  <style type="text/css">
   <![CDATA[
    .fil0 {fill:#FEFEFE}
    .fil1 {fill:#3B9ED4}
   ]]>
  </style>
 </defs>
 <g id="Слой_x0020_1">
  <metadata id="CorelCorpID_0Corel-Layer"/>
  <g id="_1791061712512">
   <path class="fil0" d="M11.28 44.6l0.85 0 0 -10.48c10.67,-0.36 18.65,-2.9 22.57,-9.41 3.17,-5.29 3.35,-7.9 -0.5,-13.25 -5.96,-8.28 -18.35,-10.74 -34.2,-9.83l0 8.98 7.98 0c3.78,0 6.29,0.09 10.04,1.02 5.56,1.39 8.42,3.59 8.56,6.6 -1.91,5.49 -6.73,7.6 -14.45,7.45l0 -10.22 -12.1 0 0 29.14 11.25 0z"/>
   <polygon class="fil0" points="25.42,29.22 15.73,32.53 25.47,44.64 38.71,44.64 "/>
  </g>
  <path class="fil1" d="M60.8 11.8l0 -9.46c-12.7,2.15 -21.42,12.17 -20.16,23.17 1.26,10.99 12.09,19.38 25.04,19.38 12.94,0 23.78,-8.39 25.04,-19.38 1.26,-11 -7.47,-21.02 -20.17,-23.17l0 9.46c6.48,1.98 9.9,7.65 8.73,13.43 -1.18,5.79 -7.06,10.01 -13.93,10.01 -6.88,0 -12.76,-4.22 -13.94,-10.01 -1.17,-5.78 2.92,-11.45 9.39,-13.43z"/>
  <path class="fil0" d="M214.09 24.59c-0.94,-6.12 2.35,-12.12 8.02,-14.61 5.68,-2.5 12.32,-0.51 16.21,4.32l11.73 0c-4.36,-9.85 -14.75,-15.59 -25.41,-14.05 -10.66,1.54 -18.99,9.99 -20.38,20.67 -0.21,8.48 4.2,16.41 11.52,20.69 7.32,4.28 16.39,4.25 23.68,-0.1 7.28,-4.34 11.63,-12.3 11.34,-20.78l-26.2 0 0 6.06 15.8 0c-2.27,5.76 -8.13,10.05 -14.29,9.36 -6.16,-0.69 -11.09,-5.43 -12.02,-11.56z"/>
  <path class="fil1" d="M317.96 0.74c-3.78,5.95 -10.01,9.93 -17.01,10.88 -1.85,3.25 -2.66,6.78 -2.66,10.54 0,6 1.87,11.13 6.2,15.38 4.36,4.28 9.59,6.12 15.66,6.12 0.67,0 4.88,0.01 5.6,0l0 -9.76c-0.88,0.04 -5.25,0.04 -5.92,0.04 -3.08,0 -5.86,-1.08 -8.01,-3.29 -2.14,-2.21 -3.14,-5.02 -3.14,-8.06 0,-3.11 1.18,-5.87 3.38,-8.07 2.19,-2.22 4.98,-3.42 8.11,-3.42 3.36,0 6.34,1.3 8.48,3.91 2.09,2.56 2.88,5.72 2.88,8.97l0 19.67 10.08 0 0 -21.01c0,-5.99 -1.38,-11.83 -5.72,-16.22 -4.29,-4.34 -9.99,-5.75 -15.96,-5.75 -0.66,0 -1.32,0.02 -1.97,0.07z"/>
  <g id="_1791061687696">
   <path class="fil0" d="M267.4 43.56l0.85 0 0 -10.47c10.68,-0.37 18.65,-2.9 22.57,-9.41 3.18,-5.29 3.35,-7.91 -0.49,-13.25 -5.96,-8.28 -18.36,-10.75 -34.21,-9.84l0 8.99 7.99 0c3.78,0 6.28,0.09 10.03,1.02 5.56,1.38 8.42,3.58 8.56,6.59 -1.91,5.5 -6.72,7.61 -14.44,7.45l0 -10.21 -12.11 0 0 29.13 11.25 0z"/>
   <polygon class="fil0" points="281.55,28.19 271.85,31.5 281.59,43.61 294.84,43.61 "/>
  </g>
  <path class="fil0" d="M382.73 21.02c0,-4.24 1.48,-9 6.54,-9 2.27,0 4.28,1.01 5.37,3.05 0.9,1.7 1.03,4 1.03,5.9l0 22.88 11.36 0 0 -24.54c0,-4.34 -0.66,-9.48 -3.54,-12.93 -3.14,-3.78 -7.11,-5.42 -12,-5.42 -4.63,0 -8.74,2.84 -11.96,5.92l-2.56 2.45 -2.43 -2.58c-3.28,-3.5 -7.19,-5.79 -12.07,-5.79 -4.35,0 -7.91,1.56 -10.92,4.7 -3.13,3.25 -4.58,7.07 -4.58,11.57l0 26.62 11.36 0 0 -22.83c0,-4.24 1.5,-9 6.55,-9 2.26,0 4.25,0.98 5.37,2.97 0.97,1.72 1.12,4.04 1.12,5.98l0 22.88 11.36 0 0 -22.83z"/>
  <path class="fil0" d="M174.82 20.75c0,-4.23 1.48,-8.99 6.54,-8.99 2.27,0 4.28,1 5.37,3.04 0.9,1.7 1.03,4.01 1.03,5.9l0 22.89 11.36 0 0 -24.54c0,-4.34 -0.66,-9.49 -3.54,-12.94 -3.14,-3.77 -7.11,-5.41 -12,-5.41 -4.63,0 -8.74,2.83 -11.96,5.92l-2.56 2.45 -2.43 -2.59c-3.28,-3.49 -7.19,-5.78 -12.07,-5.78 -4.35,0 -7.91,1.56 -10.92,4.69 -3.13,3.25 -4.58,7.08 -4.58,11.58l0 26.62 11.36 0 0 -22.84c0,-4.24 1.5,-8.99 6.55,-8.99 2.26,0 4.25,0.98 5.37,2.97 0.97,1.72 1.12,4.04 1.12,5.97l0 22.89 11.36 0 0 -22.84z"/>
  <path class="fil1" d="M107.08 11.25l0 -9.46c-12.7,2.14 -21.43,12.16 -20.17,23.16 1.26,11 12.1,19.39 25.04,19.39 12.95,0 23.78,-8.39 25.04,-19.39 1.26,-11 -7.46,-21.02 -20.16,-23.16l0 9.46c6.47,1.98 9.9,7.65 8.72,13.43 -1.17,5.78 -7.05,10.01 -13.93,10.01 -6.88,0 -12.76,-4.23 -13.93,-10.01 -1.18,-5.78 2.91,-11.45 9.39,-13.43z"/>
 </g>
</svg>
